<?xml version="1.0" encoding="utf-8"?>
<!-- Generator: Adobe Illustrator 26.3.1, SVG Export Plug-In . SVG Version: 6.00 Build 0)  -->
<svg version="1.1" id="Layer_1" xmlns="http://www.w3.org/2000/svg" xmlns:xlink="http://www.w3.org/1999/xlink" x="0px" y="0px"
	 viewBox="0 0 1372 139" style="enable-background:new 0 0 1372 139;" xml:space="preserve">
<style type="text/css">
	.st0{fill:#EA3628;}
	.st1{fill:#FFFFFF;}
</style>
<g id="Layer_12">
	<g>
		<g>
			<path class="st0" d="M45.7,51.8v35.6h71.1V123c-17.7,0-89,0-106.7,0V16.2h106.7v35.6L45.7,51.8L45.7,51.8z"/>
			<path class="st0" d="M138.7,123V16h107v107H138.7z"/>
			<path class="st0" d="M517.5,123V16h107v107H517.5z"/>
			<path class="st0" d="M372.1,16.2v106.7h-35.6V87.3H301v35.6h-35.6V16.2C288.7,16.2,349.5,16.2,372.1,16.2z"/>
			<path class="st0" d="M501,16.2v71.1h-71.1v35.6h-35.6V16.2H501z"/>
			<path class="st0" d="M752.8,16.2v35.6h-35.6v71.1h-71.1V87.3h35.6c0-17.7,0-53.4,0-71.1L752.8,16.2L752.8,16.2z"/>
			<path class="st0" d="M881.7,51.8c0,17.7,0,53.4,0,71.1h-35.6V87.3h-35.6v35.6H775c0-17.7,0-53.4,0-71.1h35.6V16.2h35.6v35.6
				L881.7,51.8L881.7,51.8z"/>
			<path class="st0" d="M1010.6,51.8v71.1c-31.7,0-75,0-106.7,0V16.2c17.7,0,53.4,0,71.1,0v35.6L1010.6,51.8L1010.6,51.8z"/>
			<path class="st0" d="M1104,87.3v35.6c-17.7,0-53.4,0-71.1,0V16.2h35.6v71.1H1104z"/>
			<path class="st0" d="M1197.4,51.8v35.6h35.6V123c-23.3,0-84.1,0-106.7,0V16.2c22.8,0,83.1,0,106.7,0v35.6L1197.4,51.8
				L1197.4,51.8z"/>
			<path class="st0" d="M1361.9,16.2v35.6h-35.6v71.1h-71.1V87.3h35.6c0-17.7,0-53.4,0-71.1L1361.9,16.2L1361.9,16.2z"/>
		</g>
		<g>
			<g>
				<g>
					<rect x="164.8" y="42.1" class="st1" width="27.4" height="54.9"/>
					<rect x="192.2" y="42.1" width="27.4" height="54.9"/>
				</g>
			</g>
		</g>
		<g>
			<rect x="543.6" y="42" class="st1" width="27.4" height="54.9"/>
			<rect x="571" y="42" width="27.4" height="54.9"/>
		</g>
	</g>
</g>
</svg>
